<!--?xml version="1.0" standalone="no"?-->
              <svg id="sw-js-blob-svg" viewBox="0 0 100 100" xmlns="http://www.w3.org/2000/svg" version="1.1">
                    <defs> 
                        <linearGradient id="sw-gradient" x1="0" x2="1" y1="1" y2="0">
                            <stop id="stop1" stop-color="rgba(248, 117, 55, 1)" offset="0%"></stop>
                            <stop id="stop2" stop-color="rgba(251, 168, 31, 1)" offset="100%"></stop>
                        </linearGradient>
                    </defs>
                <path fill="url(#sw-gradient)" d="M25.1,-30.5C31.5,-24.4,35.2,-15.6,36.1,-6.9C37,1.8,35.2,10.5,30.5,16.6C25.8,22.7,18.3,26.1,10.1,30.1C1.9,34.1,-6.9,38.6,-15.9,37.9C-24.9,37.1,-34,31,-39.5,22.4C-45,13.7,-46.8,2.6,-43.8,-6.6C-40.8,-15.7,-33,-22.9,-24.9,-28.6C-16.8,-34.4,-8.4,-38.8,0.4,-39.3C9.3,-39.8,18.6,-36.5,25.1,-30.5Z" width="100%" height="100%" transform="translate(50 50)" stroke-width="0" style="transition: all 0.3s ease 0s;"></path>
              </svg>