<!--?xml version="1.0" standalone="no"?-->
              <svg id="sw-js-blob-svg" viewBox="0 0 100 100" xmlns="http://www.w3.org/2000/svg" version="1.1">
                    <defs> 
                        <linearGradient id="sw-gradient" x1="0" x2="1" y1="1" y2="0">
                            <stop id="stop1" stop-color="rgba(248, 117, 55, 1)" offset="0%"></stop>
                            <stop id="stop2" stop-color="rgba(251, 168, 31, 1)" offset="100%"></stop>
                        </linearGradient>
                    </defs>
                <path fill="url(#sw-gradient)" d="M26.9,-30C34.9,-25.3,41.7,-16.9,43.1,-7.8C44.5,1.4,40.6,11.3,35,19.4C29.3,27.5,22,33.8,13.7,36.1C5.5,38.3,-3.6,36.6,-13.1,34C-22.5,31.3,-32.4,27.9,-38.2,20.6C-44.1,13.4,-46,2.5,-42,-5.2C-38,-12.8,-28,-17.2,-20.1,-21.9C-12.1,-26.6,-6,-31.6,1.7,-33.7C9.4,-35.7,18.8,-34.6,26.9,-30Z" width="100%" height="100%" transform="translate(50 50)" stroke-width="0" style="transition: all 0.3s ease 0s;"></path>
              </svg>