<!--?xml version="1.0" standalone="no"?-->
              <svg id="sw-js-blob-svg" viewBox="0 0 100 100" xmlns="http://www.w3.org/2000/svg" version="1.1">
                    <defs> 
                        <linearGradient id="sw-gradient" x1="0" x2="1" y1="1" y2="0">
                            <stop id="stop1" stop-color="rgba(248, 117, 55, 1)" offset="0%"></stop>
                            <stop id="stop2" stop-color="rgba(251, 168, 31, 1)" offset="100%"></stop>
                        </linearGradient>
                    </defs>
                <path fill="url(#sw-gradient)" d="M25.6,-30.3C33.4,-24,39.9,-16.1,42.5,-6.7C45.1,2.7,43.6,13.5,38.1,21C32.6,28.5,23,32.7,13.8,34.6C4.7,36.4,-4.1,35.9,-13.2,33.7C-22.2,31.5,-31.6,27.6,-35.2,20.6C-38.7,13.7,-36.6,3.8,-35,-6.3C-33.4,-16.5,-32.3,-26.8,-26.6,-33.4C-20.8,-40,-10.4,-42.8,-0.7,-41.9C8.9,-41.1,17.9,-36.5,25.6,-30.3Z" width="100%" height="100%" transform="translate(50 50)" stroke-width="0" style="transition: all 0.3s ease 0s;"></path>
              </svg>